<svg width="128" height="128" viewBox="0 0 128 128" fill="none" xmlns="http://www.w3.org/2000/svg">
<g clip-path="url(#clip0_1_5)">
<g clip-path="url(#clip1_1_5)">
<rect width="128" height="128" fill="white"/>
<rect width="128" height="128" rx="28" fill="url(#paint0_angular_1_5)"/>
<g filter="url(#filter0_d_1_5)">
<path d="M28.0513 50.2455C32.7367 34.7533 34.3028 23.0673 42.5377 23.6274C55.1756 24.4739 38.2758 57.1514 34.014 75.1769C37.7046 78.8367 47.2231 51.7985 60.9971 52.6387C71.0804 53.2052 75.2011 94.0489 94.5141 90.1026C101.33 86.1564 79.6041 39.8198 84.8544 30.667C101.472 21.9343 114.822 96.4421 101.613 103.768C84.7132 108.695 68.8019 83.3431 58.8597 66.4442C55.0279 66.4442 44.797 95.882 24.3478 91.0892C16.819 84.8898 22.2169 69.6776 28.0384 50.2455H28.0513Z" fill="white"/>
</g>
</g>
</g>
<defs>
<filter id="filter0_d_1_5" x="15.8617" y="21.7637" width="92.9568" height="87.4236" filterUnits="userSpaceOnUse" color-interpolation-filters="sRGB">
<feFlood flood-opacity="0" result="BackgroundImageFix"/>
<feColorMatrix in="SourceAlpha" type="matrix" values="0 0 0 0 0 0 0 0 0 0 0 0 0 0 0 0 0 0 127 0" result="hardAlpha"/>
<feOffset dx="-1.4755" dy="1.4755"/>
<feGaussianBlur stdDeviation="1.65994"/>
<feComposite in2="hardAlpha" operator="out"/>
<feColorMatrix type="matrix" values="0 0 0 0 0 0 0 0 0 0 0 0 0 0 0 0 0 0 0.15 0"/>
<feBlend mode="normal" in2="BackgroundImageFix" result="effect1_dropShadow_1_5"/>
<feBlend mode="normal" in="SourceGraphic" in2="effect1_dropShadow_1_5" result="shape"/>
</filter>
<radialGradient id="paint0_angular_1_5" cx="0" cy="0" r="1" gradientUnits="userSpaceOnUse" gradientTransform="translate(-2.99999 123.385) rotate(-47.8025) scale(161.98 93.9669)">
<stop offset="0.106981" stop-color="#212C67"/>
<stop offset="0.693685" stop-color="#4556A5"/>
</radialGradient>
<clipPath id="clip0_1_5">
<rect width="128" height="128" fill="white"/>
</clipPath>
<clipPath id="clip1_1_5">
<rect width="128" height="128" fill="white"/>
</clipPath>
</defs>
</svg>
